<?xml version="1.0" encoding="utf-8" ?>
<svg baseProfile="tiny" height="1024" version="1.2" width="1024" xmlns="http://www.w3.org/2000/svg" xmlns:ev="http://www.w3.org/2001/xml-events" xmlns:xlink="http://www.w3.org/1999/xlink"><defs /><polygon fill="white" points="574,237 574,241 573,242 573,244 572,245 572,248 571,249 571,250 570,251 570,253 569,254 569,255 568,256 568,257 567,258 567,259 566,260 566,261 564,263 564,264 562,266 562,267 559,270 559,271 555,275 555,276 539,292 538,292 534,296 533,296 528,301 527,301 526,302 525,302 522,305 521,305 519,307 518,307 516,309 515,309 513,311 512,311 510,313 509,313 507,315 506,315 505,316 504,316 503,317 502,317 500,319 499,319 498,320 497,320 495,322 494,322 493,323 492,323 490,325 489,325 488,326 487,326 486,327 485,327 484,328 483,328 482,329 481,329 479,331 478,331 477,332 476,332 475,333 474,333 473,334 472,334 471,335 470,335 468,337 467,337 466,338 465,338 464,339 463,339 462,340 461,340 460,341 459,341 458,342 457,342 456,343 455,343 453,345 452,345 451,346 450,346 449,347 448,347 447,348 446,348 444,350 443,350 442,351 441,351 440,352 439,352 438,353 437,353 435,355 434,355 433,356 432,356 431,357 430,357 428,359 427,359 426,360 425,360 423,362 422,362 421,363 420,363 418,365 417,365 416,366 415,366 413,368 412,368 410,370 409,370 407,372 406,372 404,374 403,374 401,376 400,376 398,378 397,378 394,381 393,381 390,384 389,384 384,389 383,389 379,393 378,393 378,394 377,395 376,395 359,412 359,413 354,418 354,419 349,424 349,425 346,428 346,429 344,431 344,432 342,434 342,435 340,437 340,438 338,440 338,441 337,442 337,443 336,444 336,445 335,446 335,447 333,449 333,450 332,451 332,452 331,453 331,454 330,455 330,457 329,458 329,459 328,460 328,461 327,462 327,463 326,464 326,466 325,467 325,468 324,469 324,471 323,472 323,474 322,475 322,477 321,478 321,480 320,481 320,484 319,485 319,487 318,488 318,492 317,493 317,497 316,498 316,502 315,503 315,511 314,512 314,539 315,540 315,550 316,551 316,556 317,557 317,562 318,563 318,566 319,567 319,571 320,572 320,574 321,575 321,578 322,579 322,581 323,582 323,584 324,585 324,587 325,588 325,589 326,590 326,593 327,594 327,595 328,596 328,597 329,598 329,599 330,600 330,601 331,602 331,603 332,604 332,605 333,606 333,608 335,610 335,611 336,612 336,613 337,614 337,615 339,617 339,618 341,620 341,621 342,622 342,623 344,625 344,626 346,628 346,629 349,632 349,633 353,637 353,638 357,642 357,643 375,661 376,661 381,666 382,666 387,671 388,671 390,673 391,673 393,675 394,675 396,677 397,677 399,679 400,679 402,681 403,681 405,683 406,683 407,684 408,684 409,685 410,685 412,687 413,687 414,688 415,688 416,689 417,689 418,690 419,690 420,691 421,691 422,692 423,692 424,693 425,693 426,694 428,694 429,695 430,695 431,696 433,696 434,697 435,697 436,698 438,698 439,699 441,699 442,700 444,700 445,701 447,701 448,702 450,702 451,703 454,703 455,704 457,704 458,705 461,705 462,706 465,706 466,707 470,707 471,708 477,708 478,709 485,709 486,710 494,710 495,711 512,711 513,712 511,714 511,715 508,718 508,719 505,722 505,723 503,725 503,726 501,728 501,729 500,730 500,731 498,733 498,734 497,735 497,736 496,737 496,738 495,739 495,740 494,741 494,743 493,744 493,745 492,746 492,748 491,749 491,751 490,752 490,756 489,757 489,761 488,762 488,767 487,768 487,779 488,780 488,787 489,788 489,791 490,792 490,795 491,796 491,798 492,799 492,801 493,800 493,799 494,798 494,796 495,795 495,794 496,793 496,792 497,791 497,790 498,789 498,788 499,787 499,786 501,784 501,783 503,781 503,780 506,777 506,776 508,774 508,773 512,769 512,768 517,763 517,762 527,752 528,752 528,751 533,746 534,746 541,739 542,739 545,736 546,736 550,732 551,732 554,729 555,729 558,726 559,726 561,724 562,724 565,721 566,721 567,720 568,720 571,717 572,717 574,715 575,715 576,714 577,714 579,712 580,712 582,710 583,710 584,709 585,709 586,708 587,708 589,706 590,706 591,705 592,705 593,704 594,704 595,703 596,703 598,701 599,701 600,700 601,700 602,699 603,699 605,697 606,697 607,696 608,696 609,695 610,695 612,693 613,693 614,692 615,692 617,690 618,690 619,689 620,689 622,687 623,687 625,685 626,685 628,683 629,683 631,681 632,681 634,679 635,679 637,677 638,677 641,674 642,674 645,671 646,671 654,663 655,663 674,644 674,643 678,639 678,638 681,635 681,634 684,631 684,630 686,628 686,627 687,626 687,625 690,622 690,621 691,620 691,619 692,618 692,617 693,616 693,615 695,613 695,612 696,611 696,610 697,609 697,608 698,607 698,605 699,604 699,603 700,602 700,601 701,600 701,599 702,598 702,596 703,595 703,594 704,593 704,590 705,589 705,588 706,587 706,585 707,584 707,581 708,580 708,577 709,576 709,574 710,573 710,569 711,568 711,564 712,563 712,558 713,557 713,549 714,548 714,521 713,520 713,514 712,513 712,508 711,507 711,504 710,503 710,499 709,498 709,496 708,495 708,493 707,492 707,490 706,489 706,487 705,486 705,485 704,484 704,482 703,481 703,480 702,479 702,478 701,477 701,476 700,475 700,474 699,473 699,471 697,469 697,468 696,467 696,466 695,465 695,464 693,462 693,461 691,459 691,458 688,455 688,454 685,451 685,450 682,447 682,446 668,432 667,432 663,428 662,428 659,425 658,425 655,422 654,422 652,420 651,420 649,418 648,418 646,416 645,416 644,415 643,415 642,414 641,414 640,413 639,413 638,412 637,412 636,411 635,411 634,410 633,410 632,409 631,409 630,408 628,408 627,407 626,407 625,406 623,406 622,405 620,405 619,404 617,404 616,403 613,403 612,402 610,402 609,401 605,401 604,400 601,400 600,399 594,399 593,398 584,398 583,397 564,397 563,398 554,398 553,399 548,399 547,400 543,400 542,401 539,401 538,402 535,402 534,403 531,403 530,404 528,404 527,405 526,405 525,406 522,406 521,407 520,407 519,408 517,408 516,409 515,409 514,410 513,410 512,411 511,411 510,412 509,412 508,413 507,413 506,414 505,414 504,415 503,415 502,416 501,416 500,417 499,417 498,418 497,418 495,420 494,420 492,422 491,422 489,424 488,424 485,427 484,427 480,431 479,431 465,445 465,446 461,450 461,451 458,454 458,455 456,457 456,458 454,460 454,461 453,462 453,463 452,464 452,465 450,467 450,469 449,470 449,471 448,472 448,473 447,474 447,476 446,477 446,478 445,479 445,481 444,482 444,484 443,485 443,487 442,488 442,492 441,493 441,498 440,499 440,506 439,507 439,520 440,521 440,528 441,529 441,533 442,534 442,538 443,539 443,541 444,542 444,544 445,545 445,547 446,548 446,549 447,550 447,551 448,552 448,553 449,554 449,556 451,558 451,559 452,560 452,561 454,563 454,564 457,567 457,568 459,570 459,571 468,580 469,580 473,584 474,584 477,587 478,587 480,589 481,589 483,591 484,591 485,592 486,592 487,593 488,593 489,594 491,594 492,595 493,595 494,596 496,596 497,597 499,597 500,598 502,598 503,599 508,599 509,600 515,600 516,601 537,601 538,600 544,600 545,599 548,599 549,598 551,598 552,597 555,597 556,596 557,596 558,595 560,595 561,594 562,594 563,593 564,593 565,592 566,592 568,590 569,590 571,588 572,588 578,582 579,582 583,578 583,577 586,574 586,573 588,571 588,570 589,569 589,568 590,567 590,566 591,565 591,564 592,563 592,562 593,561 593,560 594,559 594,557 595,556 595,553 596,552 596,547 597,546 597,532 596,531 596,528 595,527 595,524 594,523 594,521 593,520 593,519 592,518 592,517 591,516 591,515 589,513 589,512 586,509 586,508 578,500 577,500 575,498 574,498 572,496 571,496 570,495 569,495 568,494 566,494 565,493 563,493 562,492 560,492 559,491 543,491 542,492 540,492 539,493 537,493 536,494 535,494 534,495 533,495 532,496 531,496 529,498 528,498 522,504 522,505 521,506 521,507 519,509 519,511 518,512 518,514 517,515 517,524 520,524 522,522 523,522 524,521 525,521 526,520 528,520 529,519 543,519 544,520 545,520 546,521 547,521 548,522 549,522 551,524 552,524 554,526 554,527 557,530 557,531 558,532 558,535 559,536 559,543 558,544 558,546 557,547 557,549 556,550 556,551 553,554 553,555 552,556 551,556 546,561 545,561 544,562 543,562 542,563 541,563 540,564 537,564 536,565 532,565 531,566 523,566 522,565 517,565 516,564 514,564 513,563 511,563 510,562 509,562 508,561 507,561 506,560 505,560 503,558 502,558 500,556 499,556 493,550 493,549 490,546 490,545 488,543 488,542 487,541 487,540 486,539 486,537 485,536 485,535 484,534 484,532 483,531 483,526 482,525 482,503 483,502 483,499 484,498 484,496 485,495 485,493 486,492 486,490 487,489 487,488 488,487 488,485 489,484 489,483 490,482 490,481 491,480 491,479 492,478 492,477 494,475 494,474 497,471 497,470 502,465 502,464 509,457 510,457 515,452 516,452 518,450 519,450 520,449 521,449 522,448 523,448 525,446 526,446 527,445 528,445 529,444 530,444 531,443 533,443 534,442 536,442 537,441 539,441 540,440 542,440 543,439 547,439 548,438 552,438 553,437 558,437 559,436 560,437 561,436 580,436 581,437 587,437 588,438 592,438 593,439 597,439 598,440 600,440 601,441 604,441 605,442 607,442 608,443 609,443 610,444 612,444 613,445 614,445 615,446 616,446 617,447 618,447 619,448 620,448 621,449 622,449 623,450 624,450 626,452 627,452 629,454 630,454 633,457 634,457 639,462 640,462 641,463 641,464 642,464 645,467 645,468 652,475 652,476 654,478 654,479 656,481 656,482 658,484 658,485 659,486 659,487 660,488 660,489 661,490 661,491 662,492 662,493 663,494 663,495 664,496 664,497 665,498 665,500 666,501 666,503 667,504 667,505 668,506 668,509 669,510 669,513 670,514 670,520 671,521 671,531 672,532 672,534 671,535 671,547 670,548 670,555 669,556 669,560 668,561 668,564 667,565 667,568 666,569 666,571 665,572 665,574 664,575 664,577 663,578 663,579 662,580 662,582 661,583 661,584 660,585 660,586 659,587 659,588 658,589 658,590 657,591 657,592 656,593 656,594 655,595 655,596 653,598 653,599 652,600 652,601 650,603 650,604 647,607 647,608 645,610 645,611 641,615 641,616 624,633 623,633 618,638 617,638 614,641 613,641 611,643 610,643 608,645 607,645 606,646 605,646 603,648 602,648 601,649 600,649 599,650 598,650 597,651 596,651 595,652 594,652 593,653 592,653 591,654 590,654 589,655 587,655 586,656 585,656 584,657 582,657 581,658 580,658 579,659 577,659 576,660 574,660 573,661 571,661 570,662 567,662 566,663 563,663 562,664 560,664 559,665 555,665 554,666 550,666 549,667 544,667 543,668 537,668 536,669 503,669 502,668 495,668 494,667 487,667 486,666 482,666 481,665 478,665 477,664 474,664 473,663 470,663 469,662 467,662 466,661 463,661 462,660 461,660 460,659 458,659 457,658 455,658 454,657 453,657 452,656 450,656 449,655 448,655 447,654 446,654 445,653 443,653 442,652 441,652 439,650 438,650 437,649 436,649 435,648 434,648 433,647 432,647 430,645 429,645 428,644 427,644 425,642 424,642 422,640 421,640 419,638 418,638 415,635 414,635 408,629 407,629 393,615 393,614 389,610 389,609 385,605 385,604 383,602 383,601 382,600 382,599 380,597 380,596 378,594 378,593 377,592 377,591 375,589 375,587 374,586 374,585 373,584 373,583 371,581 371,579 370,578 370,577 369,576 369,574 368,573 368,571 367,570 367,569 366,568 366,566 365,565 365,562 364,561 364,558 363,557 363,554 362,553 362,549 361,548 361,540 360,539 360,515 361,514 361,507 362,506 362,501 363,500 363,496 364,495 364,493 365,492 365,489 366,488 366,486 367,485 367,483 368,482 368,480 369,479 369,478 370,477 370,475 371,474 371,473 372,472 372,471 373,470 373,469 374,468 374,467 375,466 375,465 376,464 376,463 377,462 377,461 379,459 379,458 380,457 380,456 382,454 382,453 384,451 384,450 386,448 386,447 389,444 389,443 393,439 393,438 415,416 416,416 422,410 423,410 427,406 428,406 430,404 431,404 433,402 434,402 437,399 438,399 440,397 441,397 443,395 444,395 446,393 447,393 449,391 450,391 451,390 452,390 454,388 455,388 456,387 457,387 458,386 459,386 461,384 462,384 464,382 465,382 466,381 467,381 468,380 469,380 470,379 471,379 473,377 474,377 475,376 476,376 477,375 478,375 479,374 480,374 481,373 482,373 483,372 484,372 485,371 486,371 487,370 488,370 490,368 491,368 492,367 493,367 494,366 495,366 497,364 498,364 499,363 500,363 501,362 502,362 503,361 504,361 506,359 507,359 508,358 509,358 510,357 511,357 513,355 514,355 516,353 517,353 518,352 519,352 522,349 523,349 525,347 526,347 528,345 529,345 531,343 532,343 536,339 537,339 541,335 542,335 547,330 548,330 563,315 563,314 566,311 566,310 569,307 569,306 571,304 571,303 572,302 572,301 574,299 574,298 575,297 575,296 576,295 576,294 577,293 577,291 578,290 578,289 579,288 579,285 580,284 580,281 581,280 581,275 582,274 582,260 581,259 581,254 580,253 580,250 579,249 579,247 578,246 578,244 577,243 577,242 576,241 576,239" /></svg>